<svg xmlns="http://www.w3.org/2000/svg" xmlns:xlink="http://www.w3.org/1999/xlink" viewBox="0 0 1000 1200" width="1000" height="1200"><defs><filter id="distress" x="0" y="0" width="1000" height="1200" filterUnits="userSpaceOnUse" primitiveUnits="userSpaceOnUse">
  <feTurbulence type="fractalNoise" baseFrequency="0.6" numOctaves="4" seed="54" result="n"/>
  <feColorMatrix in="n" type="matrix" values="0 0 0 0 0  0 0 0 0 0  0 0 0 0 0  0 0 0 -7 4.9" result="m"/>
  <feComposite in="SourceGraphic" in2="m" operator="in"/>
</filter></defs><g filter="url(#distress)"><path d="M454.66 130.26Q452.02 130.26 449.91 129.09Q447.8 127.92 446.56 125.68Q445.33 123.43 445.33 120.22Q445.33 116.99 446.56 114.74Q447.8 112.49 449.91 111.32Q452.02 110.15 454.66 110.15Q457.29 110.15 459.39 111.32Q461.5 112.49 462.74 114.74Q463.97 116.99 463.97 120.22Q463.97 123.44 462.74 125.69Q461.5 127.93 459.39 129.1Q457.29 130.26 454.66 130.26ZM280.18 130V110.42H285.28L290.74 119.27Q291.27 120.14 291.78 121.08Q292.29 122.03 292.78 123.17Q293.02 123.71 293.25 124.32Q293.22 123.87 293.19 123.4Q293.1 122.09 293.04 120.85Q292.98 119.61 292.98 118.75V110.42H297.73V130H292.63L287.62 121.89Q286.94 120.78 286.4 119.77Q285.85 118.77 285.31 117.6Q285.01 116.96 284.65 116.19Q284.7 116.9 284.74 117.59Q284.83 118.93 284.88 120.04Q284.94 121.15 284.94 121.88V130ZM341.5 130V110.42H349.52Q351.73 110.42 353.32 111.21Q354.92 112 355.79 113.46Q356.66 114.92 356.66 116.92Q356.66 118.94 355.77 120.36Q354.89 121.78 353.26 122.52Q353.26 122.52 353.25 122.53L357.34 130H352.25L348.66 123.26H346.13V130ZM474.69 130 481.22 110.42H487.43L494.16 130H488.95L487.63 125.83H481.11L479.84 130ZM547.76 130 554.29 110.42H560.5L567.23 130H562.03L560.7 125.83H554.19L552.91 130ZM220 130V110.42H224.63V118.1H232.46V110.42H237.09V130H232.46V121.89H224.63V130ZM605.62 130V110.42H610.26V118.1H618.08V110.42H622.71V130H618.08V121.89H610.26V130ZM319.97 130.26Q317.17 130.26 315.06 129.05Q312.94 127.83 311.76 125.58Q310.57 123.33 310.57 120.24Q310.57 117.04 311.82 114.78Q313.07 112.53 315.18 111.34Q317.3 110.15 319.91 110.15Q321.6 110.15 323.06 110.64Q324.52 111.12 325.65 112.02Q326.78 112.91 327.49 114.13Q328.19 115.34 328.37 116.8H323.68Q323.52 116.2 323.19 115.72Q322.87 115.24 322.4 114.9Q321.93 114.57 321.32 114.4Q320.72 114.22 319.99 114.22Q318.57 114.22 317.51 114.92Q316.46 115.62 315.88 116.95Q315.31 118.29 315.31 120.18Q315.31 122.09 315.87 123.43Q316.43 124.77 317.48 125.48Q318.53 126.19 320.01 126.19Q321.32 126.19 322.24 125.75Q323.16 125.31 323.63 124.51Q324.08 123.75 324.1 122.73H320.19V119.33H328.59V121.9Q328.59 124.52 327.48 126.39Q326.37 128.26 324.42 129.26Q322.48 130.26 319.97 130.26ZM424.25 130.26Q421.45 130.26 419.34 129.05Q417.22 127.83 416.04 125.58Q414.85 123.33 414.85 120.24Q414.85 117.04 416.1 114.78Q417.35 112.53 419.46 111.34Q421.58 110.15 424.19 110.15Q425.88 110.15 427.34 110.64Q428.8 111.12 429.93 112.02Q431.06 112.91 431.77 114.13Q432.47 115.34 432.65 116.8H427.96Q427.8 116.2 427.47 115.72Q427.15 115.24 426.68 114.9Q426.21 114.57 425.6 114.4Q425 114.22 424.27 114.22Q422.85 114.22 421.79 114.92Q420.74 115.62 420.16 116.95Q419.59 118.29 419.59 120.18Q419.59 122.09 420.15 123.43Q420.71 124.77 421.76 125.48Q422.81 126.19 424.29 126.19Q425.6 126.19 426.52 125.75Q427.44 125.31 427.91 124.51Q428.36 123.75 428.38 122.73H424.47V119.33H432.87V121.9Q432.87 124.52 431.76 126.39Q430.65 128.26 428.7 129.26Q426.76 130.26 424.25 130.26ZM258.63 130.26Q256.16 130.26 254.3 129.36Q252.44 128.47 251.41 126.85Q250.38 125.23 250.38 123.05V110.42H255.01V122.66Q255.01 123.7 255.47 124.49Q255.93 125.29 256.74 125.75Q257.56 126.2 258.63 126.2Q259.71 126.2 260.53 125.75Q261.34 125.29 261.8 124.49Q262.26 123.7 262.26 122.66V110.42H266.9V123.05Q266.9 125.23 265.86 126.85Q264.82 128.47 262.96 129.36Q261.1 130.26 258.63 130.26ZM772.26 130.26Q769.81 130.26 768 129.52Q766.18 128.79 765.17 127.29Q764.16 125.8 764.12 123.54H768.57Q768.64 124.48 769.1 125.12Q769.56 125.76 770.35 126.09Q771.15 126.41 772.2 126.41Q773.17 126.41 773.86 126.15Q774.55 125.88 774.93 125.41Q775.3 124.93 775.3 124.31Q775.3 123.75 774.96 123.35Q774.62 122.95 773.92 122.65Q773.21 122.35 772.13 122.11L770.07 121.63Q767.53 121.05 766.08 119.74Q764.63 118.42 764.63 116.21Q764.63 114.39 765.62 113.03Q766.6 111.67 768.32 110.91Q770.04 110.15 772.26 110.15Q774.53 110.15 776.2 110.92Q777.87 111.69 778.79 113.07Q779.71 114.44 779.74 116.26H775.27Q775.18 115.18 774.41 114.59Q773.64 114 772.24 114Q771.32 114 770.69 114.24Q770.06 114.49 769.75 114.92Q769.43 115.35 769.43 115.9Q769.43 116.5 769.79 116.91Q770.15 117.33 770.8 117.6Q771.46 117.88 772.33 118.08L774.01 118.47Q775.43 118.78 776.54 119.3Q777.66 119.82 778.43 120.54Q779.2 121.26 779.6 122.2Q780 123.15 780 124.32Q780 126.18 779.08 127.51Q778.15 128.84 776.42 129.55Q774.69 130.26 772.26 130.26ZM661.45 130V110.42H675.04V114.2H666.08V118.25H674.33V121.96H666.08V126.21H675.03V130ZM743.27 130.26Q740.63 130.26 738.54 129.09Q736.44 127.92 735.23 125.68Q734.01 123.43 734.01 120.22Q734.01 116.99 735.24 114.74Q736.47 112.49 738.57 111.32Q740.67 110.15 743.27 110.15Q745.02 110.15 746.51 110.63Q748 111.11 749.14 112.03Q750.28 112.95 751 114.28Q751.72 115.62 751.92 117.33H747.22Q747.11 116.61 746.8 116.03Q746.48 115.46 745.99 115.06Q745.49 114.65 744.84 114.44Q744.18 114.22 743.39 114.22Q741.96 114.22 740.91 114.93Q739.87 115.64 739.31 116.98Q738.75 118.32 738.75 120.22Q738.75 122.18 739.32 123.51Q739.89 124.85 740.93 125.52Q741.96 126.19 743.37 126.19Q744.16 126.19 744.81 125.98Q745.46 125.76 745.97 125.36Q746.47 124.95 746.8 124.38Q747.12 123.81 747.24 123.09H751.94Q751.81 124.4 751.19 125.67Q750.56 126.94 749.47 127.98Q748.37 129.02 746.82 129.64Q745.27 130.26 743.27 130.26ZM375.08 130V122.9L367.8 110.42H373.24L376.32 116.43Q376.77 117.29 377.12 118.17Q377.27 118.53 377.41 118.94Q377.55 118.53 377.69 118.16Q378.03 117.28 378.45 116.43L381.39 110.42H386.8L379.69 122.9V130ZM503.44 114.2V110.42H519.92V114.2H514V130H509.37V114.2ZM576.52 114.2V110.42H592.99V114.2H587.08V130H582.44V114.2ZM687.43 114.2V110.42H703.91V114.2H697.99V130H693.36V114.2ZM636 130V110.42H640.63V126.21H648.82V130ZM721.17 110.42V130H716.54V110.42ZM454.66 126.19Q456.08 126.19 457.11 125.5Q458.13 124.82 458.68 123.48Q459.23 122.15 459.23 120.22Q459.23 118.28 458.68 116.94Q458.13 115.6 457.11 114.91Q456.08 114.22 454.66 114.22Q453.23 114.22 452.21 114.91Q451.18 115.6 450.63 116.94Q450.07 118.28 450.07 120.22Q450.07 122.15 450.63 123.48Q451.18 124.81 452.21 125.5Q453.23 126.19 454.66 126.19ZM346.13 119.59H348.54Q349.63 119.59 350.36 119.3Q351.1 119.02 351.47 118.43Q351.84 117.84 351.84 116.92Q351.84 116 351.47 115.4Q351.1 114.79 350.36 114.48Q349.62 114.18 348.53 114.18H346.13V119.59ZM486.5 122.29 486.23 121.44Q485.58 119.3 484.97 116.89Q484.62 115.53 484.27 114.1Q483.95 115.53 483.63 116.9Q483.08 119.32 482.46 121.44L482.2 122.29H486.5ZM559.57 122.29 559.3 121.44Q558.65 119.3 558.04 116.89Q557.69 115.53 557.35 114.1Q557.02 115.53 556.71 116.9Q556.15 119.32 555.53 121.44L555.27 122.29H559.57Z" fill="#0E0E0E"/><path d="M342.29 1005.13Q290.62 1005.13 266.19 976.12Q241.77 947.12 241.77 890.75V680.79L248.15 674.36L255.9 679.22Q256.11 679.35 256.34 679.48Q259.26 681.19 262.61 681.65Q265.96 682.11 269.23 681.26Q272.5 680.4 275.19 678.36Q277.89 676.32 279.6 673.4L283.55 666.65L295.22 673.39Q298.13 675.07 301.47 675.52Q304.81 675.96 308.07 675.1Q311.33 674.24 314.01 672.2Q316.69 670.16 318.39 667.26L320.83 663.09Q321.44 663.52 322.09 663.94V887.46Q322.09 897.79 323.27 907.3Q324.44 916.82 328.67 922.92Q332.9 929.03 342.29 929.03Q351.92 929.03 356.15 923.04Q360.37 917.05 361.43 907.42Q362.49 897.79 362.49 887.46V689.54Q362.78 689.53 363.07 689.5Q384.02 687.69 401.56 688.77Q411.64 689.39 417.01 680.83L440.56 643.27L442.81 644.52V890.75Q442.81 947.12 418.39 976.12Q393.96 1005.13 342.29 1005.13ZM50 560V216.32H120.69L152.32 380.93V216.32H218.72V560H188.96Q186.77 557.51 183.79 556.03Q180.77 554.52 177.39 554.29Q164.33 553.37 149.48 549.68L117.17 388.16V560ZM913.79 554.25Q914.62 552.99 915.22 551.6Q916.55 548.49 916.6 545.11Q916.65 541.73 915.39 538.59Q914.14 535.45 911.78 533.02Q909.43 530.6 906.32 529.27Q903.44 528.03 901.29 527.1L899.24 513.79Q901.03 513.18 902.68 512.17Q905.56 510.41 907.55 507.67Q909.54 504.94 910.33 501.65Q911.12 498.36 910.59 495.02L907.93 478.26Q907.4 474.92 905.64 472.04Q903.87 469.15 901.13 467.16Q898.4 465.18 895.11 464.39Q894.76 464.3 894.42 464.24Q894.67 460.35 894.91 455.64Q894.93 455.19 894.93 454.75Q894.93 451.37 893.63 448.24Q892.33 445.12 889.94 442.73Q887.54 440.35 884.41 439.06Q881.29 437.77 877.91 437.77L877.55 437.77V425.46Q877.55 410.42 871.4 406.81Q865.25 403.2 851.58 403.2V462.39Q845.18 476.07 840.18 486.45L814.55 479.05Q804.3 476.1 797.18 484.03L782.06 500.88V216.32H887.51Q913.87 216.32 927.35 228.33Q940.82 240.34 945.41 261.91Q950 283.49 950 312.59Q950 340.71 942.87 357.5Q935.75 374.29 916.02 380.74Q932.23 384.06 938.77 396.85Q945.31 409.64 945.31 429.95V560H909.99ZM675.33 1001.37V615.55Q675.43 615.48 675.55 615.4Q693.18 603.6 705.65 588H709.46Q710.4 589.09 711.53 590.02Q714.12 592.17 717.33 593.17L753.13 604.28Q755.58 605.04 758 605.07V930.91H843.02V1001.37ZM551.38 525.77 545.46 522.86Q539.39 519.89 532.94 521.89Q526.49 523.88 523.17 529.76L520.56 534.39L507.78 528.56Q501.76 525.81 495.47 527.86Q489.18 529.9 485.92 535.66L480.77 544.78Q474.32 540.35 466.2 536.45Q460.62 533.77 454.62 535.31Q452.44 535.87 450.58 536.88L411.05 216.12H476.47L501.66 450.06L524.12 216.12H589.53L551.38 525.77ZM253.18 560V216.32H390.65V282.71H323.09V349.69H387.92V414.33H323.09V493.02H395.14V551.23L383.23 547.52Q378.46 546.04 373.66 547.37Q368.85 548.69 365.52 552.4L358.7 560H320.83L318.7 558.92Q312.64 555.84 306.12 557.79Q303.5 558.58 301.39 560ZM50 1001.37V588H85.54Q84.52 589.84 83.96 591.98Q82.51 597.47 84.66 602.72Q91.45 619.35 94.32 637.47Q97.16 655.38 95.25 675.04Q94.68 680.99 97.95 685.99Q101.22 690.99 106.91 692.84Q118.09 696.49 131.41 698.43Q130.26 700.75 129.85 703.34Q129.32 706.68 130.12 709.97Q130.91 713.25 132.9 715.99Q133.02 716.15 133.14 716.31V734.32H211.12V813.94H133.14V1001.37ZM479.33 1001.37V631.4L484.29 621.35Q484.31 621.43 484.33 621.51Q485.17 624.78 487.2 627.49Q489.23 630.19 492.15 631.91Q492.99 632.41 493.87 632.8Q492.71 633.49 491.5 634.16Q487.42 636.43 485.08 640.47Q483.38 643.4 482.93 646.75Q482.47 650.1 483.34 653.37Q484.21 656.64 486.26 659.32Q488.31 662.01 491.23 663.71L508.23 673.59Q512.62 676.14 517.7 675.86Q522.77 675.59 526.86 672.57Q535.48 666.21 543.66 652.06Q550.73 639.83 556.75 624.14Q559.57 616.81 562.01 609.07V930.91H647.03V1001.37ZM683.36 476.82Q667.57 474.06 657.04 468.96Q648.75 464.93 640.85 469.69Q625.94 478.67 613.45 492.93V216.32H750.92V282.71H683.36V349.69H748.19V414.33H683.36V476.82ZM865.92 1001.13V931.14H950V1001.13ZM851.97 343.64H868.57Q882.83 343.64 882.83 312.59Q882.83 292.48 879.7 286.23Q876.58 279.98 867.99 279.98H851.97ZM733.62 493.02Q733.34 493.32 733.06 493.63Q724.54 503.27 711.72 515.38Q709.14 513.19 706.37 511.09L710.22 506.03Q713.16 502.17 713.62 497.34Q713.83 495.15 713.49 493.02H733.62ZM191.31 588 186.62 596.23Q183.34 593.62 180.02 591.14L183.29 588H191.31ZM482.51 603.38Q483.54 602.75 484.49 601.96Q485.19 601.38 485.81 600.74L486.43 605.15Q486.8 607.49 486.02 608.86Q485.78 609.28 485.57 609.71Q484.95 607.22 483.61 604.99Q483.1 604.15 482.51 603.38Z" fill="#0E0E0E"/><path d="M681.82 515.26Q700.53 525.9 712.01 539.67Q700.04 578.56 666.09 601.27Q610.78 588.56 604.06 546.11Q603.57 543.01 603.38 539.78Q622.03 500.87 649.62 484.25Q667.55 492.95 696.7 495.73ZM100.4 596.3Q121.25 579.79 140.45 564.9Q159.48 570.08 176.21 571.24L157.01 589.64Q151.87 589.34 147.22 587.81Q142.56 586.28 139.22 586.01Q135.87 585.75 133.35 586.15Q130.83 586.54 129.24 589.34Q127.66 592.14 127.99 594.23Q128.32 596.33 128.52 597.09L131.8 618.29L157.31 596.03Q179.02 610.09 198.89 630.09Q195.37 650.06 189.55 669Q183.72 687.94 172.64 704.88Q167.76 712.26 162.41 713.11Q159.23 713.61 156.35 712.04Q153.48 710.46 151.25 708.95Q149.02 707.43 146.64 705.98Q167.46 697.27 173.39 679.47Q177.48 667.13 175.68 655.8Q174.88 650.76 172.38 644.51Q169.88 638.27 159.32 626.34Q152.72 618.79 145.58 619.92Q141.31 620.6 136.89 624.32Q135.7 625.31 133.26 627.52L136.88 650.89Q137.22 654.02 139.12 654.71Q141.02 655.4 143.84 655.91Q146.67 656.42 151.36 657.15Q156.05 657.88 162.34 656.96L149 683.17Q127.94 681.82 112.17 676.68Q114.29 654.87 111.11 634.81Q107.93 614.75 100.4 596.3ZM351.81 593.15 378.17 563.75 413.23 574.67Q408.09 580.89 409.14 587.49L412.89 613.22Q413.23 615.87 419.13 622.97Q425.03 630.07 427.69 631.8L402.6 671.8Q383.81 670.64 361.6 672.57L377.63 644.18Q366.97 641.65 358.81 636.34Q360.83 632.52 360.38 625.19L356.52 601.79Q355.78 596.65 351.81 593.15ZM783.47 524.78 809.83 495.39 846.68 506.02Q841.46 512.25 842.43 518.86L846.18 544.59Q846.6 547.23 849.88 550.13Q853.17 553.03 855.97 554.66L842.85 573.28L828.87 562.85Q825.08 567.03 821.12 570.64Q817.15 574.25 814.17 577.98Q801.84 575.48 790.31 568Q792.61 563.9 791.97 556.84L788.02 533.44L787.92 532.82Q787.2 528.24 783.47 524.78ZM719.25 531.61Q735.41 516.64 745.8 504.89Q752.18 506.51 759.28 512.14Q774.61 524.11 779.44 539.02Q780.03 540.75 780.29 542.38Q781.1 547.5 778.74 551.14L758.17 588.04L722.37 576.93Q725.91 565.15 724.65 557.16L721.63 539.11Q720.51 533.56 719.25 531.61ZM237.3 600.86 246.68 584.26 265.35 589.66Q265 592.97 264.35 596.18Q263.71 599.38 264.21 602.56L268.12 634.24L268.19 634.71Q268.79 638.51 271.51 640.58Q274.22 642.66 277.44 643.42L264.92 664.81L245.67 652.75L227.83 670.69L209.36 660.01Q213.01 653.94 212.16 648.59L207.13 613.28Q206.54 609.55 200.21 606.74L209.67 590.13L228.26 595.53Q227.91 598.85 227.26 602.05Q226.62 605.26 227.12 608.44L231.1 640.1Q231.54 643.85 235.14 647.5Q236.25 648.51 237.81 648.27Q241.68 647.65 248.71 639.3L244.22 607.4Q243.63 603.68 237.3 600.86ZM529.72 622.63 520.4 620.05 500.79 617.27Q504.53 610.72 503.22 602.49L498.26 567.17Q497.65 563.29 491.34 560.63L500.72 544.03L521.3 553.41Q520.95 556.73 519.65 558.33Q518.36 559.93 518.55 563.16L520.82 600.1Q520.97 602.54 525.14 607.05Q529.32 611.56 534.48 610.98Q539.61 591.16 535.36 561.29Q534.93 557.62 528.59 554.73L537.97 538.13L557.46 547.69Q557.11 551 556.33 552.12Q555.56 553.24 554.99 562.2Q554.42 571.16 550.42 587.38Q546.43 603.6 540.88 618.04Q535.34 632.48 528.94 643.56Q522.54 654.63 516.77 658.89L499.77 649.01Q521.12 637.12 529.72 622.63ZM303.72 586.84 311 574.08 338.6 588.08 337.72 597.6 340.67 622.75 340.74 623.22Q341.34 627.02 344.06 629.09Q346.77 631.17 349.92 631.94L337.4 653.33Q330.94 649.74 327.33 646.74Q323.71 643.73 321.99 632.87L321.73 631.24L317.72 602.44Q317.21 599.18 306.07 593.15L303.74 598.53L306.91 628.1L306.99 628.56Q307.59 632.36 310.3 634.44Q313.02 636.51 316.24 637.28L303.72 658.67L285.25 647.99Q288.82 641.94 287.97 636.58L283.02 601.26Q282.43 597.53 276.09 594.72L285.48 578.12ZM899.6 544.88 885.3 566.56Q878.94 563.11 872.51 559.63Q866.07 556.16 859.8 552.7Q867.07 543.91 865.9 535.5L861.11 503.25L854.36 504.32L853.39 498.19Q861.55 481.39 873.88 454.78L877.93 454.77Q877.49 463.51 877 469.2Q876.5 474.88 877.48 483.08L891.14 480.92L893.8 497.68L879.91 499.88L884.99 532.96Q885.91 538.78 887.08 539.39Q888.25 540 899.6 544.88ZM450.37 563.61 458.84 551.77Q476.14 560.09 483.41 570.31L473.63 588.88Q470.56 583.09 466.21 579Q461.87 574.92 452.71 571.36L450.71 575.25L453.42 601.95Q453.83 606.02 459.87 609.52Q465.91 613.01 469.06 613.79L459.07 634.06L432.05 619.17Q435.57 613.29 434.86 607.75L429.98 577.98Q429.16 574.29 423.06 571.44L432.44 554.84ZM655.61 534.61Q657.49 543.94 660.05 553.07Q652.21 555.83 642.72 566.72Q650.01 571.53 658.95 575.04Q667.9 578.56 675.04 577.43Q677.06 577.11 679.03 576.48Q691.5 572.35 691.57 562.8Q691.57 560.25 691.2 557.92Q690.17 551.41 686.34 546.8Q682.51 542.2 674.83 538.44Q667.16 534.69 655.61 534.61ZM394.91 613.2 390.63 587.63 375.85 583.21Q372.42 590.68 373.25 595.95L376.26 614.96Q377.17 620.71 379.27 622.68Q381.38 624.65 382.93 625.96Q384.49 627.26 386.67 627.95ZM809.14 514.59Q805.71 522.05 806.54 527.33L809.55 546.34Q810.47 552.16 812.96 554.31Q815.15 556.59 816.99 558.36Q818.82 560.14 822.3 560.54L827.94 554.96L822.29 519.27ZM739.69 525.59 744.68 558.6Q745.98 562.29 750.97 563.69Q755.97 565.09 757.48 564.85Q758.99 564.61 759.51 564.37Q766.1 561.73 764.98 554.67Q764.72 553.04 764.01 551.08Q759.35 538.7 753.3 532.94Q747.26 527.17 739.69 525.59ZM410.51 645.41Q399.89 636.6 396.78 621.98L379.82 652.5Q392.08 650.56 406.74 652.21ZM636.08 561.96Q637.4 557.22 636.8 551.43L633.22 524.31Q632.75 520.81 629.47 515.68Q628.4 516.96 627.62 518.6Q622.06 529.18 623.93 540.98Q625.96 553.78 636.08 561.96ZM651.59 506.69Q652.13 514.64 653.09 520.69Q654.05 526.74 654.85 530.83Q658.5 526.2 662.37 521.53Q666.24 516.86 669.86 512.07Q662.36 507.93 651.59 506.69Z" fill="#F2EEE6"/><path d="M595.14 1095.13V1076.22H602.11L604.52 1083.58Q604.73 1084.26 604.99 1085.36Q605.25 1086.47 605.51 1087.74Q605.74 1088.83 605.94 1089.86Q606.13 1088.84 606.36 1087.75Q606.62 1086.48 606.88 1085.37Q607.14 1084.26 607.34 1083.58L609.72 1076.22H616.7V1095.13H612.2V1086.98Q612.2 1086.35 612.23 1085.36Q612.25 1084.36 612.28 1083.19Q612.32 1082.02 612.35 1080.83Q612.36 1080.36 612.37 1079.91Q612.25 1080.42 612.12 1080.95Q611.82 1082.16 611.52 1083.3Q611.23 1084.45 610.95 1085.4Q610.68 1086.35 610.48 1086.98L607.8 1095.13H604.06L601.33 1086.98Q601.14 1086.36 600.86 1085.41Q600.59 1084.46 600.28 1083.32Q599.97 1082.18 599.67 1080.97Q599.56 1080.55 599.46 1080.13Q599.47 1080.46 599.48 1080.8Q599.51 1081.99 599.54 1083.16L599.6 1085.34Q599.62 1086.34 599.62 1086.98V1095.13ZM575.31 1095.38Q572.77 1095.38 570.73 1094.25Q568.69 1093.12 567.5 1090.96Q566.31 1088.79 566.31 1085.69Q566.31 1082.57 567.5 1080.4Q568.69 1078.22 570.73 1077.1Q572.77 1075.97 575.31 1075.97Q577.85 1075.97 579.88 1077.1Q581.92 1078.22 583.11 1080.4Q584.3 1082.57 584.3 1085.69Q584.3 1088.8 583.11 1090.96Q581.92 1093.13 579.88 1094.26Q577.85 1095.38 575.31 1095.38ZM744.86 1095.38Q742.32 1095.38 740.28 1094.25Q738.24 1093.12 737.05 1090.96Q735.87 1088.79 735.87 1085.69Q735.87 1082.57 737.05 1080.4Q738.24 1078.22 740.28 1077.1Q742.32 1075.97 744.86 1075.97Q747.4 1075.97 749.44 1077.1Q751.47 1078.22 752.66 1080.4Q753.85 1082.57 753.85 1085.69Q753.85 1088.8 752.66 1090.96Q751.47 1093.13 749.44 1094.26Q747.4 1095.38 744.86 1095.38ZM489.36 1095.13V1076.22H497.2Q499.31 1076.22 500.74 1076.83Q502.17 1077.44 502.89 1078.51Q503.61 1079.59 503.61 1081.01Q503.61 1082.1 503.16 1082.94Q502.71 1083.79 501.92 1084.34Q501.13 1084.89 500.09 1085.11V1085.31Q501.23 1085.35 502.2 1085.91Q503.16 1086.47 503.75 1087.48Q504.34 1088.48 504.34 1089.85Q504.34 1091.37 503.58 1092.56Q502.82 1093.76 501.35 1094.44Q499.89 1095.13 497.79 1095.13ZM352.38 1095.13V1076.22H357.31L362.58 1084.77Q363.09 1085.61 363.58 1086.52Q364.07 1087.43 364.55 1088.54Q364.78 1089.05 365.01 1089.64Q364.98 1089.21 364.95 1088.76Q364.86 1087.49 364.8 1086.3Q364.74 1085.1 364.74 1084.27V1076.22H369.33V1095.13H364.4L359.56 1087.3Q358.91 1086.22 358.39 1085.26Q357.86 1084.29 357.34 1083.16Q357.05 1082.54 356.7 1081.8Q356.75 1082.48 356.79 1083.15Q356.87 1084.44 356.93 1085.51Q356.98 1086.58 356.98 1087.29V1095.13ZM408.46 1095.13V1076.22H416.2Q418.33 1076.22 419.87 1076.99Q421.41 1077.75 422.25 1079.16Q423.09 1080.58 423.09 1082.5Q423.09 1084.45 422.24 1085.82Q421.39 1087.19 419.81 1087.91Q419.81 1087.91 419.8 1087.91L423.75 1095.13H418.83L415.37 1088.62H412.93V1095.13ZM228.48 1095.13 234.78 1076.22H240.78L247.27 1095.13H242.25L240.97 1091.1H234.68L233.45 1095.13ZM665.25 1095.13 671.55 1076.22H677.55L684.05 1095.13H679.02L677.74 1091.1H671.45L670.22 1095.13ZM762.64 1095.13 768.94 1076.22H774.94L781.43 1095.13H776.41L775.13 1091.1H768.84L767.61 1095.13ZM297.42 1095.13V1076.22H301.89V1083.64H309.44V1076.22H313.91V1095.13H309.44V1087.3H301.89V1095.13ZM389.23 1095.38Q386.53 1095.38 384.49 1094.21Q382.45 1093.03 381.31 1090.86Q380.16 1088.69 380.16 1085.71Q380.16 1082.61 381.37 1080.44Q382.57 1078.26 384.62 1077.12Q386.66 1075.97 389.18 1075.97Q390.81 1075.97 392.22 1076.44Q393.62 1076.91 394.72 1077.77Q395.81 1078.63 396.49 1079.81Q397.17 1080.98 397.35 1082.39H392.82Q392.66 1081.8 392.35 1081.34Q392.03 1080.88 391.58 1080.56Q391.12 1080.23 390.54 1080.07Q389.96 1079.9 389.26 1079.9Q387.88 1079.9 386.86 1080.57Q385.84 1081.25 385.29 1082.53Q384.74 1083.82 384.74 1085.65Q384.74 1087.49 385.28 1088.79Q385.82 1090.08 386.83 1090.77Q387.84 1091.45 389.27 1091.45Q390.54 1091.45 391.43 1091.03Q392.31 1090.61 392.77 1089.83Q393.2 1089.09 393.23 1088.11H389.45V1084.83H397.55V1087.31Q397.55 1089.84 396.48 1091.65Q395.41 1093.45 393.53 1094.42Q391.66 1095.38 389.23 1095.38ZM717.07 1095.38Q714.37 1095.38 712.33 1094.21Q710.29 1093.03 709.14 1090.86Q708 1088.69 708 1085.71Q708 1082.61 709.21 1080.44Q710.41 1078.26 712.45 1077.12Q714.5 1075.97 717.01 1075.97Q718.65 1075.97 720.05 1076.44Q721.46 1076.91 722.55 1077.77Q723.65 1078.63 724.33 1079.81Q725.01 1080.98 725.18 1082.39H720.65Q720.5 1081.8 720.18 1081.34Q719.87 1080.88 719.42 1080.56Q718.96 1080.23 718.38 1080.07Q717.8 1079.9 717.1 1079.9Q715.72 1079.9 714.7 1080.57Q713.68 1081.25 713.13 1082.53Q712.58 1083.82 712.58 1085.65Q712.58 1087.49 713.12 1088.79Q713.66 1090.08 714.67 1090.77Q715.68 1091.45 717.11 1091.45Q718.38 1091.45 719.27 1091.03Q720.15 1090.61 720.61 1089.83Q721.04 1089.09 721.06 1088.11H717.29V1084.83H725.39V1087.31Q725.39 1089.84 724.32 1091.65Q723.25 1093.45 721.37 1094.42Q719.49 1095.38 717.07 1095.38ZM333.14 1095.37Q330.76 1095.37 328.96 1094.51Q327.17 1093.65 326.17 1092.09Q325.18 1090.52 325.18 1088.42V1076.22H329.65V1088.04Q329.65 1089.04 330.1 1089.81Q330.54 1090.58 331.32 1091.02Q332.11 1091.46 333.14 1091.46Q334.19 1091.46 334.98 1091.02Q335.76 1090.58 336.21 1089.81Q336.65 1089.04 336.65 1088.04V1076.22H341.12V1088.42Q341.12 1090.52 340.12 1092.09Q339.12 1093.65 337.33 1094.51Q335.53 1095.37 333.14 1095.37ZM187.86 1095.38Q185.5 1095.38 183.74 1094.67Q181.99 1093.95 181.01 1092.51Q180.04 1091.07 180 1088.89H184.3Q184.36 1089.8 184.8 1090.42Q185.25 1091.04 186.01 1091.35Q186.78 1091.66 187.8 1091.66Q188.73 1091.66 189.4 1091.41Q190.07 1091.15 190.43 1090.69Q190.79 1090.24 190.79 1089.64Q190.79 1089.09 190.46 1088.71Q190.13 1088.33 189.45 1088.04Q188.78 1087.75 187.73 1087.51L185.74 1087.05Q183.29 1086.49 181.89 1085.22Q180.49 1083.95 180.49 1081.82Q180.49 1080.06 181.44 1078.75Q182.39 1077.43 184.05 1076.7Q185.71 1075.97 187.86 1075.97Q190.05 1075.97 191.66 1076.71Q193.27 1077.45 194.16 1078.78Q195.05 1080.11 195.07 1081.86H190.77Q190.68 1080.83 189.93 1080.26Q189.19 1079.68 187.84 1079.68Q186.95 1079.68 186.34 1079.92Q185.74 1080.15 185.43 1080.57Q185.13 1080.99 185.13 1081.52Q185.13 1082.09 185.47 1082.49Q185.82 1082.89 186.45 1083.16Q187.08 1083.43 187.92 1083.62L189.55 1084Q190.92 1084.3 191.99 1084.8Q193.07 1085.3 193.81 1085.99Q194.56 1086.69 194.94 1087.6Q195.33 1088.51 195.33 1089.65Q195.33 1091.44 194.44 1092.72Q193.54 1094.01 191.87 1094.7Q190.2 1095.38 187.86 1095.38ZM627.96 1095.13V1076.22H641.08V1079.88H632.44V1083.79H640.39V1087.37H632.44V1091.47H641.07V1095.13ZM514.95 1095.13V1076.22H528.07V1079.88H519.42V1083.79H527.38V1087.37H519.42V1091.47H528.05V1095.13ZM547.61 1095.38Q545.06 1095.38 543.04 1094.25Q541.02 1093.12 539.85 1090.96Q538.68 1088.79 538.68 1085.69Q538.68 1082.57 539.86 1080.4Q541.05 1078.22 543.08 1077.1Q545.1 1075.97 547.61 1075.97Q549.3 1075.97 550.74 1076.43Q552.18 1076.89 553.28 1077.78Q554.38 1078.67 555.07 1079.96Q555.77 1081.25 555.96 1082.9H551.43Q551.32 1082.2 551.02 1081.65Q550.71 1081.1 550.23 1080.7Q549.76 1080.31 549.12 1080.11Q548.49 1079.9 547.73 1079.9Q546.35 1079.9 545.34 1080.58Q544.33 1081.27 543.79 1082.56Q543.25 1083.85 543.25 1085.69Q543.25 1087.58 543.8 1088.87Q544.35 1090.15 545.35 1090.8Q546.35 1091.45 547.71 1091.45Q548.47 1091.45 549.1 1091.24Q549.73 1091.04 550.22 1090.65Q550.7 1090.26 551.02 1089.7Q551.33 1089.15 551.45 1088.45H555.98Q555.86 1089.72 555.25 1090.95Q554.65 1092.17 553.59 1093.18Q552.54 1094.18 551.04 1094.78Q549.54 1095.38 547.61 1095.38ZM439.31 1095.13V1088.28L432.29 1076.22H437.54L440.51 1082.03Q440.94 1082.86 441.28 1083.71Q441.42 1084.06 441.56 1084.46Q441.7 1084.05 441.83 1083.7Q442.16 1082.85 442.57 1082.03L445.4 1076.22H450.63L443.76 1088.28V1095.13ZM261.71 1095.13V1088.28L254.69 1076.22H259.94L262.92 1082.03Q263.35 1082.86 263.69 1083.71Q263.83 1084.06 263.97 1084.46Q264.11 1084.05 264.24 1083.7Q264.56 1082.85 264.97 1082.03L267.81 1076.22H273.03L266.17 1088.28V1095.13ZM205.16 1079.88V1076.22H221.07V1079.88H215.36V1095.13H210.88V1079.88ZM788.84 1079.88V1076.22H804.74V1079.88H799.03V1095.13H794.56V1079.88ZM575.31 1091.45Q576.69 1091.45 577.68 1090.79Q578.66 1090.12 579.2 1088.84Q579.73 1087.55 579.73 1085.69Q579.73 1083.81 579.2 1082.52Q578.66 1081.23 577.68 1080.56Q576.69 1079.9 575.31 1079.9Q573.94 1079.9 572.95 1080.57Q571.96 1081.23 571.42 1082.52Q570.89 1083.82 570.89 1085.69Q570.89 1087.55 571.42 1088.84Q571.96 1090.12 572.95 1090.79Q573.94 1091.45 575.31 1091.45ZM744.86 1091.45Q746.24 1091.45 747.23 1090.79Q748.22 1090.12 748.75 1088.84Q749.28 1087.55 749.28 1085.69Q749.28 1083.81 748.75 1082.52Q748.22 1081.23 747.23 1080.56Q746.24 1079.9 744.86 1079.9Q743.49 1079.9 742.5 1080.57Q741.51 1081.23 740.98 1082.52Q740.44 1083.82 740.44 1085.69Q740.44 1087.55 740.98 1088.84Q741.51 1090.12 742.5 1090.79Q743.49 1091.45 744.86 1091.45ZM412.93 1085.08H415.25Q416.3 1085.08 417.01 1084.8Q417.72 1084.52 418.08 1083.96Q418.44 1083.39 418.44 1082.5Q418.44 1081.62 418.08 1081.03Q417.72 1080.45 417.01 1080.15Q416.3 1079.86 415.24 1079.86H412.93V1085.08ZM493.84 1091.51H496.74Q498.24 1091.51 498.96 1090.93Q499.68 1090.35 499.68 1089.34Q499.68 1088.6 499.33 1088.06Q498.99 1087.52 498.35 1087.22Q497.7 1086.92 496.82 1086.92H493.84ZM493.84 1084.02H496.44Q497.19 1084.02 497.78 1083.77Q498.37 1083.51 498.71 1083.03Q499.04 1082.55 499.04 1081.87Q499.04 1080.92 498.36 1080.36Q497.68 1079.8 496.51 1079.8H493.84ZM817.6 1095.4Q816.58 1095.4 815.89 1094.72Q815.21 1094.04 815.21 1093.03Q815.21 1092.02 815.89 1091.34Q816.58 1090.66 817.6 1090.66Q818.62 1090.66 819.31 1091.34Q820 1092.02 820 1093.03Q820 1094.04 819.31 1094.72Q818.62 1095.4 817.6 1095.4ZM462.12 1095.4Q461.1 1095.4 460.41 1094.72Q459.72 1094.04 459.72 1093.03Q459.72 1092.02 460.41 1091.34Q461.1 1090.66 462.12 1090.66Q463.14 1090.66 463.82 1091.34Q464.51 1092.02 464.51 1093.03Q464.51 1094.04 463.82 1094.72Q463.14 1095.4 462.12 1095.4ZM239.88 1087.69 239.62 1086.86Q238.99 1084.8 238.4 1082.48Q238.07 1081.16 237.73 1079.78Q237.42 1081.16 237.11 1082.49Q236.58 1084.82 235.98 1086.86L235.73 1087.69H239.88ZM676.65 1087.69 676.39 1086.86Q675.76 1084.8 675.17 1082.48Q674.84 1081.16 674.5 1079.78Q674.19 1081.15 673.88 1082.49Q673.35 1084.82 672.75 1086.86L672.5 1087.69H676.65ZM774.04 1087.69 773.78 1086.86Q773.15 1084.8 772.56 1082.48Q772.23 1081.16 771.89 1079.78Q771.58 1081.15 771.27 1082.49Q770.74 1084.82 770.14 1086.86L769.89 1087.69H774.04Z" fill="#0E0E0E"/></g></svg>