<svg xmlns="http://www.w3.org/2000/svg" xmlns:xlink="http://www.w3.org/1999/xlink" viewBox="0 0 1080 1080" width="1080" height="1080"><rect width="1080" height="1080" fill="#0E0E0E"/><path d="M1015 540C1015 802.34 802.34 1015 540 1015C277.66 1015 65 802.34 65 540C65 277.66 277.66 65 540 65C802.34 65 1015 277.66 1015 540ZM1005 540C1005 283.19 796.81 75 540 75C283.19 75 75 283.19 75 540C75 796.81 283.19 1005 540 1005C796.81 1005 1005 796.81 1005 540ZM981.5 540C981.5 783.83 783.83 981.5 540 981.5C296.17 981.5 98.5 783.83 98.5 540C98.5 296.17 296.17 98.5 540 98.5C783.83 98.5 981.5 296.17 981.5 540ZM978.5 540C978.5 297.82 782.18 101.5 540 101.5C297.82 101.5 101.5 297.82 101.5 540C101.5 782.18 297.82 978.5 540 978.5C782.18 978.5 978.5 782.18 978.5 540Z" fill="#FF5A1F"/><path d="M327.96 483.13 327.95 485.25 327.9 487.41 327.72 489.64 325.44 491.78 327.66 494.29 327.45 496.7 327.21 499.14 327.17 501.6 327.16 504.07 327.11 506.56 327.06 509.05 326.94 511.55 326.84 514.04 326.7 516.52 326.66 518.99 326.63 521.43 326.65 523.86 326.69 526.27 326.7 528.76 326.85 531.19 326.84 533.54 326.92 535.83 327.22 538.03 327.13 540.19 327.11 542.27 327.14 544.28 327.4 546.21 327.31 549.03 327.55 551.66 327.83 554.16 325.64 557.05 328.55 558.71 328.99 560.79 329.72 563.32 330.62 565.63 332 567.49 334.24 569.41 334.87 566.45 334.94 564.22 335.04 561.99 335 559.77 334.92 557.54 334.89 555.32 335.18 553.09 335.09 550.86 334.7 548.64 334.18 546.41 337.9 544.19 334.15 541.96 334.32 539.73 334.32 537.51 334.16 535.28 334.19 533.05 333.93 530.83 333.44 528.6 333.06 526.38 333.15 524.15 335.74 521.92 333.46 519.7 333.05 517.47 332.89 515.25 332.97 513.02 336.25 510.79 333.25 508.57 333.13 506.34 333.16 504.12 333.32 501.89 333.28 499.66 333.46 497.44 333.67 495.21 333.97 492.98 334.22 490.76 333.91 488.53 333.82 486.31 334.03 484.08 334.33 481.85 334.51 479.66 334.7 477.57 335.31 474.49 336.26 472.14 336.83 469.53 337.48 467.02 338.27 466.62 339.53 465.98 340.74 465.65 341.64 465.46 344.58 467.46 347.96 465.33 348.83 462.61 350.68 461.68 350.6 460.96 350.56 458.57 350 457.98 350.48 455.72 350.42 453.43 350.4 451.19 350.25 448.99 350.33 446.86 350.44 444.76 350.9 446.89 351.12 449.08 350.85 451.37 350.56 453.71 350.55 456.08 350.56 458.49 350.56 458.57 352.61 460.72 350.68 461.68 350.88 463.44 351.66 466.92 355.08 468.08 357.45 468.92 359.6 470.06 361.88 470.81 364.18 471.57 366.02 472.28 367.72 473.26 369.38 474.4 370.88 475.78 372.28 477.32 373.27 479.21 374.34 481.07 375.17 483.13 375.98 485.25 377.28 487.25 378.48 489.41 379.47 491.05 380.34 492.8 380.95 494.7 381.5 496.68 381.98 498.73 382.42 500.86 382.53 503.1 382.76 505.38 383.01 507.72 383.34 510.11 383.61 512.59 379.92 515.3 383.59 517.76 383.45 520.44 383.41 523.19 383.62 525.84 383.64 528.43 383.39 530.95 383.4 533.43 382.92 535.82 382.47 538.15 382.05 540.41 381.8 542.63 381.27 544.77 380.74 546.83 380.32 549.72 380.41 552.56 380.31 555.23 379.87 557.71 379.21 560 378.44 562.1 377.57 564.11 375.96 565.99 374.19 567.83 369.59 567.33 370.24 571.81 368.49 573.44 366.8 575.16 364.94 576.72 362.98 578.19 360.8 579.39 358.77 580.68 356.94 582.07 355.21 583.43 353.36 584.39 351.59 585.25 348.94 586.4 346.85 587.25 345.18 587.53 343.83 587.49 341.51 587.48 341.13 590.43 340.76 592.82 340.39 595.19 340.07 597.54 340.1 599.92 340.05 602.26 336.94 604.08 338.92 606.7 338.11 608.84 337.55 610.99 336.99 613.12 336.67 613.98 337.05 615.41 337.47 617.57 337.76 619.7 339.66 621.9 336.68 622.18 334.85 621.37 335.21 619.32 335.86 617.29 336.22 615.18 336.67 613.98 336.47 613.23 336.38 611.03 336.29 608.82 336.18 606.57 335.9 604.3 335.69 602.01 335.43 599.69 335.47 597.35 335.5 594.97 336.02 592.57 336.48 590.13 336.83 587.82 334.84 586.75 332.67 586.2 330.58 585.56 328.65 584.64 326.8 583.67 324.98 582.58 323.24 581.45 321.56 580.3 319.83 579.24 318.24 577.96 316.72 576.59 315.23 575.15 313.76 573.61 312.56 572.13 311.54 570.45 310.77 568.57 309.92 566.7 308.97 564.8 307.67 562.95 306.31 560.99 308.43 557.9 304.28 556.51 303.44 554.74 302.86 552.84 302.08 550.91 301.57 548.88 301.21 546.77 301.06 544.58 303.5 542.12 300.64 540.05 300.63 537.7 300.94 535.29 301.12 532.83 301.82 530.33 302.15 527.75 302.45 525.24 302.83 522.8 303.47 520.43 303.92 518.13 304.02 515.86 303.75 513.61 303.56 511.41 303.33 509.24 303.29 506.56 303.55 504.03 303.36 501.52 303.46 499.15 303.81 496.94 304.44 494.9 305.02 492.72 306.53 490.73 308.14 488.78 309.74 486.54 311.89 484.5 313.65 482.76 315.53 481.14 317.43 479.51 319.67 478.25 321.95 476.82ZM396.02 483.37 394.08 482.21 392 481.39 390.07 480.28 388.05 479.24 387.77 476.87 387.88 474.53 387.64 472.2 387.62 469.87 387.85 467.24 391.12 467.02 394.63 466.53 397.38 466.15 400.11 465.78 400.59 463.41 400.62 461.01 400.4 458.63 400.15 456.28 400.33 454.02 402.78 452.04 403.33 451.37 403.26 450.42 403.29 449.11 401.26 447.51 401.47 445.41 401.51 443.33 403.06 440.61 403.51 443.53 403.4 445.79 403.31 448.09 403.29 449.11 404.43 450.01 403.33 451.37 403.44 452.79 403.93 455.15 404.05 457.61 401.11 460.47 404.13 462.68 404.57 465.83 407.22 466.57 408.65 466.52 410.77 465.97 411.89 465.45 413.71 465.81 415.51 467.07 417.02 468.86 418.34 470.76 419.29 472.54 419.85 474.08 419.85 476.43 419.59 478.65 419.35 480.87 419.18 483.08 419.04 485.3 418.58 487.52 418.44 489.74 418.05 491.96 417.74 494.18 417.91 496.4 418.07 498.62 418.02 500.84 417.91 503.06 417.88 505.28 417.89 507.5 418.17 509.72 418.58 511.94 418.78 514.16 418.85 516.38 418.86 518.59 418.79 520.81 418.4 523.03 418.27 525.25 418.12 527.47 418.16 529.69 418.38 531.91 418.3 534.13 418.61 536.35 418.93 538.57 418.74 540.79 414.68 543.01 418.25 545.23 418.2 547.45 418.02 549.67 418.22 551.89 418.17 554.1 418.16 556.32 418.35 558.54 418.22 560.76 418.24 562.98 418.14 565.2 417.69 567.42 417.65 570.44 420.28 571.99 422.38 572.74 425.75 573.19 426.47 569.9 426.6 567.69 426.52 565.48 426.47 563.27 426.35 561.06 426.16 558.86 425.71 556.65 425.2 554.44 428.73 552.23 424.51 550.02 424.54 547.81 428.57 545.6 425.28 543.39 425.4 541.19 425.68 538.98 426.06 536.77 426.04 534.56 425.88 532.35 425.86 530.14 426.17 527.93 426.41 525.72 426.42 523.52 426.34 521.31 426.5 519.1 426.58 516.89 426.85 514.68 426.88 512.47 426.57 510.26 426.02 508.05 425.64 505.85 425.36 503.64 425.2 501.43 425.32 499.22 425.44 497.01 425.3 494.8 428.15 492.59 424.88 490.38 424.61 488.18 424.22 485.97 424 483.76 424.08 481.55 424.2 479.34 424.32 476.76 426.43 474.96 429 473.26 430.9 471.96 432.62 470.39 434.32 468.72 437.15 466.97 439.27 465.01 440.92 463.57 442.39 462.89 444.46 462.51 444.29 462 444.6 459.7 445.31 457.5 446.02 455.35 446.72 453.25 447.14 451.15 447.22 449.07 448.55 446.43 448.87 449.22 448.55 451.45 448.9 453.62 449.34 455.83 450.03 458.05 450.46 460.37 450.73 462.76 450.96 465.4 452.58 466.07 453.87 466.62 456.64 467.19 458.91 468.29 460.88 469.27 462.25 470.12 462.68 471.93 463.43 473.94 464.26 475.88 465.12 477.78 466.11 479.67 466.35 481.75 466.49 483.59 466.75 485.57 467.27 487.68 467.71 489.96 467.76 492.43 467.91 495.04 468.34 497.81 468.46 500.05 468.33 502.29 468.16 504.53 465.11 506.78 467.61 509.02 467.4 511.26 467.27 513.51 467.09 515.75 467.08 518 467.34 520.24 467.67 522.48 467.92 524.73 468.3 526.97 468.58 529.21 468.35 531.46 468.04 533.7 468.52 535.95 468.73 538.19 468.84 540.43 468.86 542.68 468.59 544.92 468.51 547.16 468.68 549.41 468.81 551.65 468.89 553.89 468.93 556.14 468.92 558.38 468.76 560.63 465.96 562.87 468.75 565.11 468.82 567.36 469.13 569.65 471.13 570.75 473.16 571.67 475.28 572.42 477.67 573.43 477.34 576.11 477.14 578.44 477.35 580.77 477.68 583.1 477.16 585.52 474.29 585.31 470.88 585.7 470.45 587.89 470.09 589.63 470.02 591.4 467.16 592.84 468.8 594.3 469.94 594.87 468.95 596.59 468.87 596.65 468.31 598.32 467.7 600.06 467.26 601.82 467.33 603.6 467.28 605.37 467.34 607.14 467.51 608.9 467.75 610.65 468.06 612.71 469.09 613.67 469.53 613.92 469.43 615.13 468.38 615.78 467.28 615.18 467.02 613.92 467.25 613.55 467.38 612.74 467.14 612.31 466.81 610.58 466.37 608.87 466.45 607.1 466.53 605.34 466.65 603.58 466.62 601.85 466.19 600.13 466.15 598.4 468.87 596.65 468.88 596.59 469.45 594.88 468.8 594.3 466.57 593.19 468.83 591.44 465.8 589.71 465.69 587.97 465.44 587.23 464.73 587.19 463.89 587.31 463.95 588.4 464.09 590.58 464.05 592.75 464.07 594.92 463.92 597.09 463.5 599.25 463.13 601.41 462.88 603.57 462.33 605.72 462.24 607.89 460.17 608.86 460.25 610.09 460.19 611.17 461.77 612.2 461.65 614.37 460.02 615.28 460.28 616.61 460.4 617.82 461.76 618.74 461.97 619.23 462.45 620.15 462.35 620.77 462.05 622.05 460.95 622.87 459.35 622.55 458.94 620.87 461.02 620.97 460.51 618.98 460.4 617.82 458.15 616.32 460.02 615.28 459.85 614.44 460.13 612.26 460.19 611.17 458.13 609.83 460.17 608.86 460.1 607.91 460.46 605.72 460.94 603.52 461.14 601.32 460.93 599.14 460.61 596.97 460.41 594.79 462.06 592.45 460.05 590.41 460.19 588.18 458.89 586.05 457.2 586.05 456.56 586.43 454.43 587.13 454.69 584.07 451.7 586.99 449.71 585.92 448.1 584.15 446.89 582.2 446.03 580.43 445.63 578.88 446.07 576.55 446.12 574.32 445.92 572.1 445.55 569.88 445.61 567.66 445.37 565.44 445.47 563.22 445.52 561 445.34 558.78 445.21 556.56 445.55 554.34 445.92 552.12 445.87 549.9 446.36 547.68 446.48 545.46 446.43 543.24 446.54 541.02 446.86 538.8 446.82 536.58 446.6 534.35 446.41 532.13 445.91 529.91 445.62 527.69 445.67 525.47 445.8 523.25 445.81 521.03 445.96 518.81 446.15 516.59 446.3 514.37 446.06 512.15 446.32 509.93 446.83 507.7 447.28 504.72 447.65 502.02 447.43 499.63 446.93 497.59 446.19 495.85 444.49 492.75 442.33 491.19 440.09 490.69 437.61 490.65 436.8 491.08 435.66 491.36 434.57 491.61 434.08 491.49 434.22 493.3 434.18 495.53 434.12 497.77 434.05 500.01 433.61 502.25 433.53 504.49 433.66 506.73 433.82 508.97 433.38 511.21 433.09 513.44 433 515.68 432.9 517.92 432.63 520.16 432.78 522.4 432.95 524.64 432.9 526.88 432.92 529.12 432.57 531.35 432.39 533.59 432.66 535.83 432.44 538.07 432.49 540.31 432.08 542.55 431.69 544.79 432.11 547.03 432.38 549.27 432.66 551.5 433.02 553.74 433.42 555.98 433.19 558.22 433.1 560.46 433.08 562.7 432.68 564.3 431.68 566.78 430.98 568.9 430.15 571.23 428.96 573.67 425.95 575.15 425.3 577.58 427.32 581.08 426.42 583.41 425.36 586.35 422.05 586.92 419.52 587.12 419.6 587.88 419.62 588.7 419.62 589.53 419.48 590.36 419.08 591.18 418.51 591.97 418.15 592.76 417.83 593.55 417.7 594.35 417.44 595.14 417.25 595.95 417.1 596.77 417.29 597.68 417.57 597.76 418.05 598.45 417.96 599.36 417.35 601.14 415.57 602.49 412.84 602.09 411.17 599.64 411.82 597.29 412.68 596.53 412.73 596.04 413.11 595.26 413.16 594.48 413.08 593.7 413.01 592.93 412.72 592.18 412.85 591.36 412.81 590.55 412.29 589.85 411.81 589.16 410.54 589.4 409.66 589.28 406.83 588.19 410.65 590.32 406.74 592.29 410.49 594.39 410.47 596.43 410.35 598.47 409.74 600.5 409.1 602.51 408.82 604.54 408.51 606.57 408.23 608.59 407.87 610.61 407.75 612.65 407.92 614.72 407.89 616.43 408.62 617.29 408.9 618.82 407.64 620.73 405.66 621.53 403.77 620.65 403.24 618.7 403.49 617.51 404.62 616.5 404.81 614.69 404.78 612.66 404.88 610.62 404.94 608.58 404.86 606.54 404.56 604.51 403.78 602.5 403.36 600.49 403 598.48 402.58 596.48 401.84 594.52 401.29 592.55 400.91 590.56 400.67 588.55 403.48 586.9 400.15 588.27 398.81 586.39 397.57 584.3 400.15 580.3 395.84 580.38 395.17 578.81ZM616.73 483.39 615.26 482.91 613.41 481.66 611.57 480.37 609.65 479.22 609.32 476.87 608.83 474.53 608.56 472.2 611.98 469.87 608.77 466.55 612.47 465.69 616.02 465.44 618.9 465.37 621.32 465.2 621.88 463.06 622.23 460.47 622.44 457.91 623.06 455.48 623.97 453.18 624.77 450.91 625.43 448.67 625.97 446.66 625.59 448.61 625.3 450.83 625.05 453.11 624.93 455.45 625.13 457.82 622.52 460.46 625.95 462.68 626.58 465.49 628.67 465.22 630.11 464.84 632.36 464.55 633.78 464.58 635.58 465.42 637.14 467 638.43 468.95 639.37 471.03 640.16 472.82 636.6 474.68 640.33 476.43 640.2 478.65 640.33 480.87 640.62 483.08 640.68 485.3 640.55 487.52 640.32 489.74 640.52 491.96 640.67 494.18 640.58 496.4 641.02 498.62 638.08 500.84 640.76 503.06 640.57 505.28 640.46 507.5 640.03 509.72 639.75 511.94 639.57 514.16 639.33 516.38 639.6 518.59 639.65 520.81 639.44 523.03 639.2 525.25 639.02 527.47 638.77 529.69 638.65 531.91 638.98 534.13 639.46 536.35 639.74 538.57 639.66 540.79 639.23 543.01 639.5 545.23 639.98 547.45 640.36 549.67 640.4 551.89 640.43 554.1 640.48 556.32 640.84 558.54 641.23 560.76 641.01 562.98 641.02 565.2 641.24 567.42 641.08 569.15 642.87 569.38 644.97 570.11 646 571.25 645.74 569.9 646.24 567.69 646.43 565.48 646.49 563.27 646.99 561.06 647.11 558.86 647 556.65 646.57 554.44 646.08 552.23 645.9 550.02 645.82 547.81 645.86 545.6 646.17 543.39 646.85 541.19 647.42 538.98 647.61 536.77 647.47 534.56 647.29 532.35 649.71 530.14 646.9 527.93 646.51 525.72 646.06 523.52 645.99 521.31 646.08 519.1 646.06 516.89 645.95 514.68 646.07 512.47 646.23 510.26 646.53 508.05 646.68 505.85 646.97 503.64 646.97 501.43 646.76 499.22 646.59 497.01 646.86 494.8 647.17 492.59 647.17 490.38 647.17 488.18 647.02 485.97 647.19 483.76 647.63 481.55 647.74 479.34 647.83 477.8 649.5 476.96 651.83 474.91 653.76 473.7 655.6 472.33 657.39 470.84 659.81 468.56 661.8 466.47 663.63 465.6 664.35 465.74 665.93 466.06 669.16 465.93 670.04 462.52 670.27 460.18 670.44 457.87 670.19 455.58 670.19 455.54 669.53 453.63 668.74 451.51 668.18 449.4 669.22 448.49 670.4 449.12 670.28 451.22 670.29 453.38 670.19 455.54 670.28 455.81 670.95 458.06 671.63 460.36 672.27 462.72 672.72 465.22 674.15 465.77 675.54 466.03 677.58 469.51 680.68 467.69 682.79 468.56 684.34 469.62 685.03 471.54 685.76 473.61 686.71 475.54 687.37 477.57 687.72 479.65 688.27 481.67 688.66 483.5 689.05 485.48 685.97 487.93 689.59 489.94 690.35 492.39 690.86 495.01 691.03 497.8 688.33 500.05 691.23 502.29 691.54 504.53 691.88 506.78 692.49 509.02 692.25 511.26 692.05 513.51 691.65 515.75 691.11 518 690.9 520.24 691.28 522.48 691.78 524.73 691.9 526.97 691.98 529.21 692.09 531.46 692.25 533.7 692.13 535.95 692.1 538.19 691.77 540.43 691.43 542.68 691.49 544.92 691.42 547.16 691.57 549.41 691.71 551.65 691.59 553.89 691.5 556.14 691.62 558.38 690.04 560.63 691.21 562.87 691.27 565.11 691.19 567.36 690.95 569.49 692.63 570.83 694.33 572.38 696.35 573.31 698.26 573.99 697.95 576.11 697.26 578.44 697.01 580.77 697.13 583.1 697.81 584.61 695.7 584.63 692.18 585.24 691.22 587.32 691.23 588.81 690.93 590.19 690.92 590.36 691.49 591.69 690.92 591.88 691.05 593.06 691.42 594.5 691.64 595.9 688.83 597.08 690.62 598.58 690.43 599.96 689.91 601.34 689.88 602.65 692.91 603.28 690.52 604.59 691.05 605.45 691.39 606.06 691.78 607.03 691.53 608.15 690.7 609.32 689.59 609.27 689.3 608.5 689.41 607.77 689.22 608.04 689.81 606.89 689.42 605.19 690.52 604.59 690.22 604.1 689.88 602.73 689.88 602.65 689.03 602.48 688.78 601.14 688.17 599.84 687.69 598.52 687.31 597.18 687.46 595.8 690.01 594.36 687.32 593.08 690.92 591.88 690.89 591.62 690.92 590.36 690.92 590.34 687.63 588.97 687.87 587.57 686.99 585.57 685.32 585.35 684.41 585.67 683.78 586.16 682.64 586.74 682.09 587.83 678.45 587.79 681.65 589.9 681.34 590.89 681.14 591.9 681.05 592.92 679.3 593.76 680.99 594.95 681.09 595.95 679.22 596.97 681.02 597.94 681.03 598.92 681.45 599.22 682.76 600.24 683.46 601.79 682.72 604.12 680.39 604.89 678.11 604.08 677.34 601.79 677.89 600.75 678.91 599.81 679.14 598.57 679.22 597.54 679.11 596.59 678.7 595.71 678.5 594.79 678 593.91 677.52 593 677.12 592.06 677.06 591.09 676.85 590.12 676.62 589.14 676.77 588.45 675.51 588.4 674.75 587.84 673.46 586.75 672.01 585.31 671.21 583.15 670.26 581.25 669.43 579.61 668.9 578.62 668.34 576.55 668.08 574.32 668.18 572.1 668.4 569.88 668.75 567.66 668.6 565.44 668.45 563.22 671.38 561 671.47 558.78 671.93 556.56 668.97 554.34 668.42 552.12 668.01 549.9 667.54 547.68 667.43 545.46 667.65 543.24 667.16 541.02 666.93 538.8 667.03 536.58 667.34 534.35 667.5 532.13 667.33 529.91 667.12 527.69 666.91 525.47 666.66 523.25 666.49 521.03 670.15 518.81 666.62 516.59 666.24 514.37 666.38 512.15 666.51 509.93 666.65 507.72 666.7 504.78 666.94 502.17 668.9 499.64 666.83 497.88 666.67 496.21 665.4 493.13 664.02 490.99 661.93 489.61 659.23 489.48 658.14 489.9 656.9 490.29 655.72 490.47 651.7 489.8 654.54 493.3 654.65 495.53 654.65 497.77 654.87 500.01 654.93 502.25 655.32 504.49 655.8 506.73 655.89 508.97 655.97 511.21 655.82 513.44 655.56 515.68 655.05 517.92 654.65 520.16 654.49 522.4 654.63 524.64 654.95 526.88 654.86 529.12 655.16 531.35 655.46 533.59 655.5 535.83 655.14 538.07 654.57 540.31 654 542.55 653.76 544.79 653.56 547.03 653.59 549.27 653.76 551.5 654.2 553.74 651.17 555.98 654.71 558.22 654.44 560.46 654.24 562.67 653.58 564.14 653 566.7 652.56 568.91 651.77 571.26 650.41 573.63 649.01 575.76 647.61 577.89 646.18 580 645.01 582.22 644.93 583.76 643.49 583.96 640.7 584.42 639.82 586.15 639.99 588.19 640.02 590.21 639.94 592.21 640.38 594.21 640.4 596.2 640.3 598.19 640.05 600.18 639.71 602.16 639.31 604.13 639.04 606.1 636.45 607.89 638.32 610.04 638.2 612.03 638.14 614.03 636.62 616.61 639.18 617.47 639.78 618.05 639.33 619.69 637.81 620.16 636.36 619.63 635.11 618.17 634.98 616.5 635.76 615.47 635.46 614.16 635.48 612.17 635.59 610.18 635.79 608.2 635.95 606.2 637.73 604.15 635.72 602.23 635.77 600.23 636.08 598.21 636.35 596.17 636.44 594.14 636.33 592.12 636.02 590.12 635.52 588.14 634.82 587.16 634.51 587.61 634.66 587.51 634.56 588.03 634.57 589.85 634.8 591.67 635.14 593.49 635.11 595.32 634.81 597.16 634.79 598.21 635.82 598.58 634.81 599.21 635.04 600.84 635.23 602.7 635.19 604.55 635.17 606.42 634.99 608.27 634.48 610.08 633.6 611.82 632.77 613.46 633.27 614.41 633.61 615.36 632.87 617.02 631.23 617.2 630.33 616.29 630.22 615.23 630.21 614.71 631.1 613.58 631.37 611.83 631.53 610 631.88 608.17 632.35 606.33 632.49 604.46 632.54 602.59 632.38 600.72 634.81 599.21 634.78 598.99 634.79 598.21 631.52 597.04 631.29 595.19 630.75 593.38 629.94 591.62 629 589.91 628.57 588.55 628.23 588.57 627.57 588.65 625.49 588.92 624.09 588.61 622.45 587.55 620.94 585.93 619.57 584.02 618.5 582.02 617.71 580.24 617.14 578.81ZM702.76 479.64 705.37 476.87 702.42 474.53 702.14 472.2 702.1 469.87 702.6 466.96 706.09 466.79 709.65 466.71 712.55 466.85 715.97 466.57 717.33 463.55 717.9 462.24 717.39 460.8 716.67 458.59 716.07 456.41 715.58 454.28 717.88 454.06 719.64 454.27 719.36 456.53 718.99 458.85 718.34 461.2 717.9 462.24 718.19 463.07 719.28 466.11 722.06 465.95 723.6 465.55 725.78 465.77 726.72 465.9 728.07 466.6 729.47 467.91 730.92 469.57 731.93 471.51 732.46 473.31 732.66 474.35 732.67 476.45 732.81 478.69 732.95 480.94 733.17 483.18 733 485.42 733.38 487.66 733.56 489.91 731.36 492.15 733.95 494.39 734.03 496.64 734.11 498.88 733.92 501.12 733.91 503.37 734.15 505.61 734.33 507.85 734.43 510.09 734.89 512.34 735.73 514.58 735.88 516.82 733.29 519.07 733.44 521.31 734.98 523.55 734.89 525.79 734.82 528.04 734.64 530.28 734.67 532.52 734.46 534.77 734.13 537.01 734.14 539.25 734.12 541.5 734.51 543.74 734.88 545.98 734.77 548.22 734.83 550.47 734.95 552.71 735.16 554.95 735.26 557.2 735.21 559.44 734.76 561.68 734.32 563.93 734.33 566.17 734.86 568.41 734.73 569.6 737.1 569.8 739.61 570.8 739.16 569.3 741.08 567.07 739.27 564.85 739.6 562.63 740.3 560.4 740.68 558.18 740.49 555.95 740.18 553.73 740.02 551.5 739.74 549.28 739.59 547.06 739.63 544.83 739.03 542.61 738.71 540.38 738.4 538.16 738.06 535.94 738.21 533.71 738.44 531.49 738.82 529.26 739.11 527.04 739.09 524.81 738.92 522.59 739.04 520.37 739.49 518.14 739.63 515.92 739.73 513.69 739.96 511.47 740.14 509.24 743.65 507.02 743.73 504.8 740.6 502.57 740.99 500.35 741.12 498.12 741.18 495.9 740.86 493.68 740.57 491.45 740.71 489.23 740.53 487 740.42 484.78 740.54 482.55 740.57 480.36 740.65 478.24 741.09 475.11 741.68 472.66 742.93 470.23 743.67 468.21 745.26 471.81 747.64 468.21 750.02 468.15 752.41 467.95 754.79 467.58 759.46 470.07 757.66 464.84 757.87 462.37 758.16 459.99 758.43 457.67 758.63 455.4 760.47 455.4 761.98 455.62 762.01 457.8 762.19 460.04 762.4 462.35 762.81 464.7 762.73 466.36 764.43 466.37 766.95 466.13 769.46 465.93 771.98 465.85 774.5 465.75 777.93 466.32 778.11 469.59 777.82 471.81 777.6 474.03 777.44 476.26 777.5 478.5 777.57 480.73 777.63 482.97 777.61 485.2 777.16 487.41 776.45 489.61 776.08 491.82 775.24 494.01 774.9 496.23 774.9 498.46 775.17 500.71 775.82 502.98 775.79 505.96 772.77 506.73 770.48 507.4 768.19 507.6 765.9 507.24 762.47 506.44 761.75 503.09 761.86 500.84 761.65 498.61 761.41 496.39 761.21 494.16 761.55 491.89 761.84 489.62 762.03 487.35 761.86 485.11 759.58 484.48 757.3 484.01 755.01 483.62 752.7 483.35 750.46 482.62 747.76 482.46 747.78 485.11 747.67 487.39 747.03 489.67 746.74 491.95 746.84 494.23 747.07 496.51 747.71 498.79 748.02 501.07 748.25 503.35 748.24 505.63 747.97 507.91 747.49 510.19 747.32 512.47 747.55 514.75 747.91 517.22 750.73 518.61 753.11 516.06 755.63 515.55 758.19 515.58 760.74 515.46 763.77 515.52 763.69 518.35 763.65 520.67 763.66 522.99 763.8 525.32 763.76 527.64 763.83 529.97 763.31 532.26 762.95 535.14 759.97 535.37 757.58 535.12 755.32 533.07 752.78 534.82 750.4 534.47 748.22 533.67 747.95 535.74 747.56 538 747.38 540.26 747.58 542.52 747.44 544.78 747.49 547.04 747.62 549.3 747.6 551.56 747.69 553.82 747.7 556.08 747.72 558.34 747.59 560.59 748.12 562.86 748.27 564.6 747.84 567.32 747.22 569.93 746.04 571.79 747.17 574.51 750.01 571.77 752.39 572.23 754.79 572.65 757.12 573.48 760.43 575.53 759.88 571.93 759.84 569.57 759.95 567.22 760.44 564.91 761.12 562.62 761.25 560.28 761.39 557.94 761.58 555.6 761.97 553.28 762.67 551 762.68 549.2 764.4 549.36 766.69 549.48 768.98 549.13 771.27 549.42 772.84 549.35 772.74 550.79 772.72 552.99 772.63 555.2 770.21 557.44 772.76 559.6 773.02 561.79 773.49 563.99 774.02 566.18 774.19 568.38 774.19 570.58 774.21 572.78 774.32 574.98 774.47 577.17 774.56 579.37 774.93 581.57 775.36 583.76 775.21 586.93 772.12 587.79 769.97 588.07 767.78 588.08 765.54 587.75 763.3 587.95 761.04 588.25 758.74 588.34 756.04 586.11 753.59 587.98 751.05 587.65 748.53 587.38 745.92 587.33 745.64 589.92 744.76 592.27 743.95 594.61 740.81 596.52 743.07 599.37 742.87 601.76 742.68 604.14 742.5 606.5 742.2 608.82 741.69 611.08 739.61 613 740.33 615.48 739.79 617.68 739.04 619.81 738.3 621.93 737.44 623.99 736.96 626.13 736.58 628.27 736.37 630.43 736.15 632.58 735.94 634.72 735.72 636.93 735.51 634.73 735.63 632.66 736.15 630.63 736.33 628.53 736.56 626.42 736.84 624.3 736.84 622.13 737.25 619.99 737.69 617.83 738.33 615.67 738.81 613.48 739.38 611.27 739.58 609 739.74 606.72 740.28 604.44 741.04 602.16 741.2 599.81 740.81 597.41 740.53 595.01 740.24 592.59 740.18 590.17 740.26 587.87 737.97 587.83 735.59 587.55 733.19 584.7 731.11 587.87 728.99 587.92 726.01 588.04 723.33 588.31 720.94 588.56 718.81 588.85 717.93 586.77 715.53 586.9 714.02 585.01 712.72 582.88 711.9 580.67 711.26 578.92 711.24 576.74 711.27 574.51 711.48 572.29 711.18 570.07 711.02 567.85 711.18 565.62 710.83 563.4 710.77 561.18 710.67 558.95 713.99 556.73 710.26 554.51 710.32 552.28 710.26 550.06 709.99 547.84 710.22 545.62 710.06 543.39 710 541.17 710.1 538.95 710.01 536.72 710.05 534.5 712.38 532.28 710.44 530.05 710.65 527.83 710.7 525.61 710.96 523.39 711.28 521.16 711.34 518.94 711.18 516.72 711.28 514.49 711.51 512.27 711.76 510.05 712 507.82 712.23 505.6 716.18 503.38 712.3 501.16 712.29 498.93 712.05 496.71 711.72 494.49 711.56 492.26 711.76 490.04 711.94 487.82 712.12 485.59 712.05 482.07ZM591.97 465.05 594.56 466.39 596.44 469.16 595.79 473.04 598.18 474.28 598.23 476.31 598.26 478.59 598.48 480.93 598.27 483.32 597.83 485.75 597.76 488.22 597.92 490.67 598.13 493.1 598.06 495.51 597.85 497.9 597.84 500.1 597.74 502.31 597.42 504.51 597.01 506.71 596.82 508.92 596.75 511.59 596.91 514.24 597.06 516.85 597.54 519.42 598.01 521.96 598.51 524.47 598.87 526.97 599.17 529.48 599.36 531.97 599.53 534.46 599.55 536.96 599.46 539.46 599.52 541.97 599.52 544.49 599.64 547.01 599.49 549.56 599.2 552.14 598.93 554.74 599.06 557.38 598.74 560.01 598.32 562.62 597.25 566.08 596.14 568.59 595.11 571.17 594 573.76 592.96 576.03 592.03 578.35 591.11 580.67 589.89 582.87 589.02 584.35 586.74 584.4 583.49 585.32 581.71 585.96 579.61 586.78 579.99 589.57 579.99 592.04 580.14 594.49 580.59 596.94 581.2 599.36 581.29 601.75 579.63 604.1 581.32 606.48 581.52 608.81 579.54 611.1 581.86 613.42 581.92 615.69 581.79 617.94 581.57 620.18 581.16 622.39 580.8 624.59 580.54 626.76 580.05 628.92 579.7 631.07 579.53 633.19 579.42 635.3 579.38 637.38 579.58 639.39 579.16 637.43 578.88 635.38 579.06 633.26 578.68 631.19 578.06 629.12 577.5 627.03 576.75 624.94 576.32 622.79 575.98 620.62 575.82 618.41 575.73 616.17 575.28 613.95 574.8 611.71 576.41 609.26 573.89 607.18 573.69 604.86 573.63 602.51 573.6 600.13 573.12 597.79 573.19 595.37 573.45 592.91 573.6 590.45 573.8 588.46 572.85 588.97 571.27 589.25 569.15 589.08 568.01 588.13 566.89 586.77 565.51 585.33 564.01 583.67 562.83 581.82 562.05 580.09 561.52 578.91 561.25 576.74 560.66 574.51 559.94 572.29 559.64 570.07 559.68 567.84 559.73 565.62 559.99 563.4 560.2 561.17 560.45 558.95 560.77 556.73 560.91 554.5 560.97 552.28 560.91 550.05 560.47 547.83 560.8 545.61 561.11 543.38 561.49 541.16 562.33 538.94 563.02 536.71 563.34 534.49 563.16 532.27 562.67 530.04 562.63 527.82 562.23 525.6 561.74 523.37 561.29 521.15 560.89 518.92 560.44 516.7 559.95 514.48 559.7 512.25 559.83 510.03 560.3 507.81 560.5 505.58 560.01 503.36 559.74 501.14 559.66 498.91 559.75 496.69 559.8 494.47 560.28 492.24 560.61 490.02 561.03 487.8 561.6 485.57 562.02 482.77 559.36 481.28 557.08 480.21 554.76 479.24 552.8 478.67 552.97 476.87 552.94 474.53 552.58 472.2 552.48 469.87 552.19 467.71 554.68 467.41 557.27 467.23 559.79 467.08 562.24 466.84 564.61 466.49 566.88 465.8 569.09 465.18 570.58 464.66 570.94 462.79 571.26 460.25 571.49 457.76 571.6 455.31 571.45 452.91 571.6 450.59 571.78 448.33 572.88 445.31 573.96 448.21 574.06 450.51 574.5 452.79 575.02 455.11 575.41 457.51 576.01 459.92 576.34 462.44 576.81 464.98 580.18 466.87 582.92 464.78 585.56 465.59 588.71 466.17 590.68 466.36ZM511.95 478.94 511.56 480.3 511.81 482.81 511.97 485.27 511.92 487.67 511.59 490.01 511.47 492.32 511.76 494.61 512.43 496.85 512.65 499.04 512.54 501.18 512.57 503.52 512.47 505.83 512.51 508.11 512.51 510.37 512.61 512.6 513.06 514.8 513.01 516.98 512.72 519.13 512.49 521.26 512.62 523.64 512.84 526.01 512.92 528.39 512.59 530.77 512.42 533.16 512.73 535.54 513.24 537.92 513.47 540.32 513.44 543.22 513.08 545.82 512.47 548.09 511.67 550.01 510.21 552.09 508.77 554.01 507.08 555.68 505.1 557.26 502.88 558.99 499.99 560.98 500.7 564.28 503.56 564.51 505.85 564.08 508.13 563.95 510.41 563.73 512.7 563.36 514.96 563.41 517.24 563.23 518.81 563.55 518.99 562.01 519.31 559.78 519.68 557.55 519.5 555.33 518.87 553.1 518.79 550.87 518.49 548.65 518.19 546.42 517.91 544.19 518.22 541.97 518.66 539.74 518.99 537.52 519.26 535.29 519.48 533.06 519.41 530.84 519.38 528.61 519.55 526.38 519.23 524.16 519.3 521.93 521.46 519.7 520.17 517.48 520.26 515.25 520.39 513.02 520.31 510.8 520.24 508.57 520.37 506.35 520.31 504.12 519.93 501.89 519.27 499.67 519.28 497.44 519.08 495.21 519.11 492.99 519.19 490.76 519.23 488.53 519.46 486.31 519.71 484.08 520.06 481.85 520.43 479.67 522.87 477.71 521.03 473.64 521.4 471.44 523.58 469.67 523.11 467.34 523.46 466.15 523.21 466.19 523.63 465.58 523.46 466.15 523.65 466.12 524.19 465.95 524.75 465.6 526.85 465.22 529.28 464.98 531.8 464.76 533.45 462.92 531.94 460.24 531.94 457.83 532.19 455.53 532.59 453.31 533.51 450.23 535.01 453.01 534.97 455.18 532.09 458.14 534.93 459.7 535.11 461.99 535.53 464.29 536.46 467.19 538.99 467.75 540.67 467.84 543.67 468.22 546.5 468.51 547.33 470.12 548.67 470.72 548.87 473.04 549.14 475.36 549.4 477.68 549.5 480 549.72 482.32 550.17 484.65 550.07 486.96 549.82 489.26 549.55 491.55 549.43 493.86 549.22 496.16 545.5 498.3 549.2 500.78 548.96 503.08 548.78 505.38 548.19 508.42 545.16 508.61 542.89 508.48 540.62 508.19 538.35 507.99 535.94 507.79 535.95 505.34 536.04 503.02 536.09 500.71 535.9 498.42 535.36 496.17 534.91 493.91 534.57 491.63 534.14 489.37 533.74 487.1 533.33 485.09 532.41 484.26 530.95 483.23 529.23 482.59 527.76 482.23 527.77 484.2 527.68 486.4 528 488.6 528.29 490.81 528.37 493.01 528.13 495.21 527.59 497.41 527.07 499.61 526.8 501.81 526.89 504.01 526.95 506.21 523.36 508.41 526.17 510.61 525.76 512.81 526 515.01 526.43 517.21 526.38 519.41 526 521.61 526 523.82 526.1 526.02 526.17 528.22 526.3 530.42 526.31 532.62 526.92 534.82 527.42 537.02 527.99 539.22 528.44 541.42 525.44 543.62 527.67 545.82 527.39 548.02 527.07 550.22 526.75 552.42 526.45 554.55 525.74 555.89 524.78 558.26 523.41 560.76 522.33 565.23 526.4 566.52 528.7 566.88 531.04 566.78 533.36 566.78 535.71 566.52 538.07 566.05 540.38 566.26 542.71 566.31 545.04 566.22 547.51 566.05 549.03 568.67 549.39 571.89 548.22 573.96 547.1 575.96 546.19 578.04 545.38 580.17 544.62 582.31 543.8 584.44 543.04 586.58 542.37 589.01 539.44 588.92 536.83 588.69 534.37 588.29 532.4 587.94 532.97 588.2 532.83 589.44 532.92 590.73 529.85 591.6 532.66 593.24 532.03 594.44 531.57 595.67 531 596.89 530.68 598.15 528.03 599.29 530.57 600.69 530.33 601.96 528.97 602.4 530.14 602.91 528.83 604.06 529.84 604.49 529.72 605.07 532.55 606.63 530.47 606.66 530.6 606.93 529.99 608.02 529.01 608.39 528.2 607.86 527.96 606.8 528.19 606.69 530.47 606.66 530.35 606.4 529.61 605.61 529.72 605.07 528.47 604.37 528.83 604.06 526.67 603.15 528.97 602.4 527.78 601.88 527.82 600.6 527.74 599.33 527.42 598.09 527.05 596.84 526.94 595.58 526.76 594.31 526.35 593.06 525.94 591.81 525.99 590.53 525.58 589.29 525.37 588.05 525.18 586.77 525.35 586.41 524.32 586.75 523.78 586.87 523.32 587.83 522.72 588.66 522.66 589.59 522.33 590.51 522.09 591.44 521.98 592.38 521.99 593.33 521.99 594.28 521.92 595.23 522.12 596.21 519.88 596.91 521.89 598.11 521.24 598.98 520.79 599.88 520.51 600.11 519.54 600.9 519.5 601.44 519.56 601.37 519.46 601.87 519.5 601.44 519.31 601.62 519.19 601.65 519.39 601.89 520.44 601.56 519.62 602.17 519.39 601.89 517.63 602.45 519.54 600.9 519.57 600.53 519.54 598.9 518.95 597.96 518.52 597.02 518.44 596.07 518.69 595.1 518.43 594.17 518.21 593.23 520.91 591.94 517.71 591.36 517.39 590.45 517.34 589.49 517.45 588.49 517.24 587.52 517 586.66 518.83 581.93 513.75 582.78 511.31 581.9 508.48 581.09 506.06 580.8 504.27 578.93 501.72 580.73 499.87 580.72 497.55 581.07 494.5 581.89 491.58 579.56 490.02 583.72 487.55 584.45 484.1 584.85 487.85 586.71 487.97 588.67 488.03 590.64 488.25 592.6 488.89 594.55 489.13 596.53 488.8 598.51 488.25 600.47 488.08 602.43 488.04 604.41 487.97 606.4 487.77 608.39 487.53 610.37 486.9 612.29 486.23 614.2 485.96 614.55 486.48 615.31 486.39 616.06 485.58 617.29 484.46 617.81 482.72 617.89 481.59 616.21 481.86 614.59 482.68 613.75 483.03 612.19 483.53 610.26 484.25 608.34 484.7 606.38 484.53 604.39 484.33 602.42 484.08 600.45 483.66 598.51 483.03 596.6 482.94 594.64 482.88 592.65 482.61 590.67 482.2 588.71 481.97 586.7 481.76 585.88 480.56 586.37 479.37 586.9 477.7 584.8 478.42 582.4 478.96 579.92 479.15 577.38 479.46 574.87 479.5 572.32 479.37 569.66 482.15 568.08 484.26 566.52 485.89 565.14 487.31 563.79 488.63 562.12 490.1 560.08 490.81 558.11 491.09 555.83 491.23 553.27 491.69 550.46 492.16 548.38 492.28 546.14 491.87 543.74 491.6 541.18 490.99 539.06 489.89 536.92 488.92 534.72 491.21 532.25 487.09 530.16 486.63 527.8 486.59 525.4 487.12 522.97 487.43 520.55 487.5 518.16 487.53 515.8 487.78 513.49 488.02 511.24 488.38 509.06 488.81 506.95 489.61 504.44 489.8 502.15 489.74 500.06 489.56 498.46 490.12 496.88 491.14 494.97 492.44 492.97 493.87 490.77 495.21 489.01 496.5 487.15 498.08 485.46 499.9 483.92 501.52 482.15 503.25 480.5 504.88 478.87 506.35 477.18 507.33 475.87 507.21 475.8 507.68 475.41 507.33 475.87ZM337.35 572.45 341.07 573.81 343.67 573.78 345.36 573.39 347.25 572.84 349.29 572.22 351.43 571.64 353.42 570.79 354.98 569.3 356.54 566.92 357.54 563.98 358.05 560.54 358.14 558.57 358.54 556.54 358.95 554.34 359.16 551.96 362.2 549.6 358.91 546.7 358.84 544.56 362.02 542.43 359.05 540.01 358.24 537.56 357.68 535.03 357.45 532.4 357.38 529.68 357.33 526.86 357.13 524.06 356.94 521.36 356.91 518.75 357.01 516.24 356.99 513.83 357.07 511.5 357.41 509.25 357.98 507.06 358.2 504.98 358.3 502.99 358.31 501.1 358.26 499.27 357.62 496.44 356.76 493.86 355.62 491.58 356.02 488.92 353.59 487.63 352.77 485.82 351.6 484.33 349.4 482.78 347 481.82 344.5 481.31 342.38 481.19 342.9 482.73 342.68 484.96 342.37 487.18 342.08 489.41 339.5 491.63 341.07 493.86 340.6 496.09 336.67 498.31 339.98 500.54 339.73 502.76 339.55 504.99 339.57 507.21 339.55 509.44 339.63 511.66 339.84 513.89 340.28 516.12 340.84 518.34 341.63 520.57 342.24 522.79 342.67 525.02 342.88 527.24 343.13 529.47 343.19 531.7 343.33 533.92 343.1 536.15 342.95 538.37 342.68 540.6 342.61 542.82 342.88 545.05 343.59 547.27 344.12 549.5 344.41 551.73 344.61 553.95 344.87 556.18 344.69 558.4 344.27 560.63 343.83 562.98 342.69 564.74 341.35 567.2 340.19 569.32ZM590.43 572.78 591.62 570.05 592.21 567.67 592.6 565.27 592.73 562.85 592.33 560.59 591.9 558.32 591.71 556.05 591.54 553.76 591.35 551.46 590.91 549.2 590.29 546.94 589.75 544.67 589.55 542.38 589.36 540.05 589.18 537.67 589.02 535.25 588.9 532.78 588.5 530.27 588.01 527.73 590.7 525.12 587.81 522.53 587.85 520.2 587.91 517.82 588.03 515.38 588.52 512.89 588.74 510.34 589.07 507.77 589.53 505.24 589.93 502.75 590.29 500.29 590.72 497.87 591.14 494.96 595.03 492.72 592.07 489.71 593.06 487.35 592.42 485.18 589.37 485.1 586.7 485.5 583.78 485.84 583.71 488.34 583.79 490.54 583.97 492.75 583.98 494.95 583.89 497.15 584.31 499.35 584.53 501.55 584.53 503.75 584.16 505.95 583.88 508.16 583.52 510.36 583.31 512.56 583.45 514.76 581.93 516.96 584.5 519.16 585.01 521.36 585.2 523.57 585.47 525.77 585.44 527.97 585.62 530.17 585.91 532.37 585.88 534.57 585.92 536.77 585.98 538.98 585.98 541.18 585.54 543.38 585.58 545.58 585.5 547.78 585.28 549.98 585.48 552.18 585.77 554.39 585.91 556.59 585.77 558.79 586 560.99 585.85 563.19 585.55 565.39 585.16 567.59 584.33 569.38ZM531.94 464.75 532.07 464.74 532.32 464.43 531.94 464.75Z" fill="#F2EEE6"/></svg>